<?xml version="1.0" encoding="UTF-8"?>
<svg width="32px" height="32px" viewBox="0 0 32 32" version="1.1" xmlns="http://www.w3.org/2000/svg" xmlns:xlink="http://www.w3.org/1999/xlink">
    <!-- Generator: Sketch 57.1 (83088) - https://sketch.com -->
    <title>切片</title>
    <desc>Created with Sketch.</desc>
    <g id="绩效管理系统-0511" stroke="none" stroke-width="1" fill="none" fill-rule="evenodd">
        <g id="过程指标监控-所有监控状态" transform="translate(-272.000000, -223.000000)">
            <g id="3备份-8" transform="translate(232.000000, 180.000000)">
                <g id="1.通用/2.Icon图标/Fill/监控点-正常" transform="translate(40.000000, 43.000000)">
                    <rect id="矩形" x="0" y="0" width="32" height="32"></rect>
                    <path d="M28,23.3333333 L5.33333331,23.3333333 C4.59999997,23.3333333 4,23.9333333 4,24.6666667 L4,28 C4,28.7333333 4.6,29.3333333 5.33333331,29.3333333 L28,29.3333333 C28.7333333,29.3333333 29.3333333,28.7333333 29.3333333,28 L29.3333333,24.6666667 C29.3333333,23.9333333 28.7333333,23.3333333 28,23.3333333 Z M16.3333333,27.3333333 L7.66666666,27.3333333 C7.13333331,27.3333333 6.66666666,26.8666667 6.66666666,26.3333333 C6.66666666,25.8 7.13333331,25.3333333 7.66666666,25.3333333 L16.3333333,25.3333333 C16.8666667,25.3333333 17.3333333,25.8 17.3333333,26.3333333 C17.3333333,26.8666667 16.8666667,27.3333333 16.3333333,27.3333333 Z M22.3333333,27.3333333 C21.8,27.3333333 21.3333333,26.8666667 21.3333333,26.3333333 C21.3333333,25.8 21.8,25.3333333 22.3333333,25.3333333 C22.8666667,25.3333333 23.3333333,25.8 23.3333333,26.3333333 C23.3333333,26.8666667 22.8666667,27.3333333 22.3333333,27.3333333 Z M25.6666667,27.3333333 C25.1333333,27.3333333 24.6666667,26.8666667 24.6666667,26.3333333 C24.6666667,25.8 25.1333333,25.3333333 25.6666667,25.3333333 C26.2,25.3333333 26.6666667,25.8 26.6666667,26.3333333 C26.6666667,26.8666667 26.2,27.3333333 25.6666667,27.3333333 Z M28,4 L5.33333331,4 C4.59999997,4 4,4.6 4,5.33333331 L4,20 C4,20.7333333 4.6,21.3333333 5.33333331,21.3333333 L28,21.3333333 C28.7333333,21.3333333 29.3333333,20.7333333 29.3333333,20 L29.3333333,5.33333331 C29.3333333,4.59999997 28.7333333,4 28,4 Z M25.6666667,15.2666667 L23.0666667,15.2666667 C22.4666667,15.2666667 21.8666667,14.9333333 21.6,14.4 L18.8666667,9.4 L16.0666667,17.8666667 C15.8666667,18.4666667 15.4,18.9333333 14.8,19 L14.4666667,19 C13.8666667,19 13.3333333,18.7333333 13.0666667,18.2 L10.8,14.5333333 L7.66666666,14.5333333 C7.13333331,14.5333333 6.66666666,14.0666667 6.66666666,13.5333333 C6.66666666,13 7.13333331,12.5333333 7.66666666,12.5333333 L11.3333333,12.5333333 C11.6666667,12.5333333 12,12.7333333 12.2,13 L14.4,16.5333333 L17.2,8.06666666 C17.4,7.46666666 17.8666667,7 18.5333333,6.86666666 C19.2666667,6.73333331 19.9333333,7.06666666 20.2666667,7.73333331 L23.2666667,13.2 L25.6666667,13.2 C26.2,13.2 26.6666667,13.6666667 26.6666667,14.2 C26.6666667,14.7333333 26.2,15.2666667 25.6666667,15.2666667 Z" id="形状" fill="#20BDF2"></path>
                </g>
            </g>
        </g>
    </g>
</svg>